<svg xmlns="http://www.w3.org/2000/svg" xmlns:xlink="http://www.w3.org/1999/xlink" width="500" zoomAndPan="magnify" viewBox="0 0 375 374.999991" height="500" preserveAspectRatio="xMidYMid meet" version="1.0"><defs><clipPath id="b376574261"><path d="M 24.84375 0.195312 L 350.328125 0.195312 L 350.328125 374.804688 L 24.84375 374.804688 Z M 24.84375 0.195312 " clip-rule="nonzero"/></clipPath><clipPath id="58b3b96378"><path d="M 131 210 L 142 210 L 142 230.539062 L 131 230.539062 Z M 131 210 " clip-rule="nonzero"/></clipPath><clipPath id="67a48a67de"><path d="M 131 210 L 142 210 L 142 230.539062 L 131 230.539062 Z M 131 210 " clip-rule="nonzero"/></clipPath><clipPath id="14792b5cb5"><path d="M 130.105469 196 L 139 196 L 139 230 L 130.105469 230 Z M 130.105469 196 " clip-rule="nonzero"/></clipPath><clipPath id="b8f995d5c2"><path d="M 130.105469 193.789062 L 153.355469 193.789062 L 153.355469 211 L 130.105469 211 Z M 130.105469 193.789062 " clip-rule="nonzero"/></clipPath></defs><path fill="#ffffff" d="M 345.695312 155.285156 L 345.695312 370.0625 L 28.34375 370.0625 L 28.34375 155.285156 L 83.15625 100.34375 L 179.996094 100.34375 C 163.269531 96.84375 150.714844 82.023438 150.714844 64.269531 C 150.714844 43.914062 167.222656 27.414062 187.589844 27.414062 C 207.957031 27.414062 224.464844 43.914062 224.464844 64.269531 C 224.464844 82.023438 211.910156 96.84375 195.183594 100.34375 L 290.886719 100.34375 L 345.699219 155.285156 " fill-opacity="1" fill-rule="nonzero"/><path fill="#00aa5f" d="M 233.515625 240.449219 L 195.113281 240.449219 C 192.660156 240.449219 190.675781 242.433594 190.675781 244.875 C 190.675781 247.324219 192.660156 249.304688 195.113281 249.304688 L 209.882812 249.304688 L 209.882812 289.902344 C 209.882812 292.347656 211.867188 294.332031 214.3125 294.332031 C 216.753906 294.332031 218.742188 292.347656 218.742188 289.902344 L 218.742188 249.304688 L 233.515625 249.304688 C 235.960938 249.304688 237.949219 247.324219 237.949219 244.875 C 237.949219 242.433594 235.960938 240.449219 233.515625 240.449219 Z M 286.96875 285.476562 L 252.992188 285.476562 L 252.992188 271.816406 L 277.550781 271.816406 C 279.996094 271.816406 281.984375 269.832031 281.984375 267.390625 C 281.984375 264.941406 279.996094 262.960938 277.550781 262.960938 L 252.992188 262.960938 L 252.992188 249.304688 L 286.96875 249.304688 C 289.410156 249.304688 291.398438 247.324219 291.398438 244.875 C 291.398438 242.433594 289.410156 240.449219 286.96875 240.449219 L 248.5625 240.449219 C 246.113281 240.449219 244.132812 242.433594 244.132812 244.875 L 244.132812 289.902344 C 244.132812 292.347656 246.113281 294.332031 248.5625 294.332031 L 286.96875 294.332031 C 289.410156 294.332031 291.398438 292.347656 291.398438 289.902344 C 291.398438 287.453125 289.410156 285.476562 286.96875 285.476562 Z M 175.628906 252.71875 C 175.628906 250.839844 174.101562 249.304688 172.21875 249.304688 L 149.503906 249.304688 C 147.621094 249.304688 146.085938 250.839844 146.085938 252.71875 L 146.085938 282.058594 C 146.085938 283.941406 147.621094 285.476562 149.503906 285.476562 L 172.21875 285.476562 C 174.101562 285.476562 175.628906 283.941406 175.628906 282.058594 Z M 184.488281 252.71875 L 184.488281 282.058594 C 184.488281 288.824219 178.988281 294.332031 172.21875 294.332031 L 149.503906 294.332031 C 142.734375 294.332031 137.222656 288.824219 137.222656 282.058594 L 137.222656 252.71875 C 137.222656 245.953125 142.734375 240.449219 149.503906 240.449219 L 172.21875 240.449219 C 178.988281 240.449219 184.488281 245.953125 184.488281 252.71875 Z M 218.464844 64.269531 C 218.464844 47.222656 204.640625 33.40625 187.585938 33.40625 C 170.53125 33.40625 156.707031 47.222656 156.707031 64.269531 C 156.707031 81.308594 170.53125 95.132812 187.585938 95.132812 C 204.640625 95.132812 218.464844 81.308594 218.464844 64.269531 Z M 245.933594 123.917969 L 129.242188 123.917969 L 129.242188 4.621094 L 245.933594 4.621094 Z M 130.6875 246.613281 L 111.480469 291.640625 C 110.792969 293.273438 109.1875 294.328125 107.410156 294.328125 C 105.632812 294.328125 104.03125 293.273438 103.332031 291.640625 L 84.132812 246.613281 C 83.171875 244.363281 84.21875 241.765625 86.46875 240.796875 C 88.722656 239.847656 91.324219 240.886719 92.285156 243.140625 L 107.410156 278.601562 L 122.539062 243.140625 C 123.492188 240.886719 126.097656 239.847656 128.347656 240.796875 C 130.597656 241.765625 131.648438 244.363281 130.6875 246.613281 " fill-opacity="1" fill-rule="nonzero"/><g clip-path="url(#b376574261)"><path fill="#283544" d="M 168.53125 72.523438 C 166.796875 70.792969 166.796875 67.988281 168.53125 66.261719 C 170.261719 64.53125 173.066406 64.53125 174.796875 66.261719 L 181.632812 73.09375 L 200.375 54.359375 C 202.105469 52.628906 204.910156 52.628906 206.640625 54.359375 C 208.375 56.085938 208.375 58.890625 206.640625 60.621094 L 184.765625 82.488281 C 183.898438 83.351562 182.765625 83.785156 181.632812 83.785156 C 180.503906 83.785156 179.363281 83.351562 178.5 82.488281 Z M 341.46875 365.949219 L 33.703125 365.949219 L 33.703125 159.628906 L 341.46875 159.628906 Z M 83.152344 104.269531 L 124.804688 104.269531 L 124.804688 119.492188 L 102.28125 119.492188 C 99.835938 119.492188 97.851562 121.476562 97.851562 123.921875 C 97.851562 126.363281 99.835938 128.347656 102.28125 128.347656 L 272.886719 128.347656 C 275.328125 128.347656 277.316406 126.363281 277.316406 123.921875 C 277.316406 121.476562 275.328125 119.492188 272.886719 119.492188 L 250.359375 119.492188 L 250.359375 104.269531 L 292.007812 104.269531 L 335.660156 150.765625 L 39.503906 150.765625 Z M 133.675781 9.050781 L 241.496094 9.050781 L 241.496094 119.492188 L 133.675781 119.492188 Z M 350.324219 155.148438 C 350.316406 154.878906 350.296875 154.625 350.242188 154.359375 C 350.226562 154.292969 350.203125 154.226562 350.191406 154.160156 C 350.144531 153.972656 350.09375 153.792969 350.019531 153.613281 C 349.988281 153.53125 349.957031 153.445312 349.921875 153.371094 C 349.835938 153.183594 349.734375 152.996094 349.621094 152.816406 C 349.597656 152.78125 349.574219 152.742188 349.554688 152.699219 C 349.425781 152.511719 349.28125 152.339844 349.125 152.164062 L 297.167969 96.804688 C 296.328125 95.914062 295.15625 95.414062 293.929688 95.414062 L 250.359375 95.414062 L 250.359375 4.621094 C 250.359375 2.175781 248.371094 0.195312 245.929688 0.195312 L 129.238281 0.195312 C 126.792969 0.195312 124.804688 2.175781 124.804688 4.621094 L 124.804688 95.414062 L 81.234375 95.414062 C 80.011719 95.414062 78.839844 95.914062 78 96.804688 L 26.039062 152.167969 C 25.882812 152.339844 25.738281 152.511719 25.613281 152.699219 C 25.585938 152.742188 25.570312 152.78125 25.542969 152.816406 C 25.429688 152.996094 25.328125 153.183594 25.242188 153.371094 C 25.207031 153.445312 25.175781 153.53125 25.148438 153.605469 C 25.078125 153.792969 25.019531 153.972656 24.976562 154.160156 C 24.957031 154.226562 24.9375 154.292969 24.925781 154.359375 C 24.875 154.625 24.847656 154.878906 24.847656 155.148438 C 24.847656 155.164062 24.839844 155.179688 24.839844 155.199219 L 24.839844 370.378906 C 24.839844 372.820312 26.824219 374.804688 29.269531 374.804688 L 345.894531 374.804688 C 348.347656 374.804688 350.324219 372.820312 350.324219 370.378906 L 350.324219 155.148438 " fill-opacity="1" fill-rule="nonzero"/></g><g clip-path="url(#58b3b96378)"><path fill="#b16242" d="M 139.082031 230.425781 C 137.074219 230.539062 135.835938 229.042969 135.722656 228.894531 C 136.039062 228.515625 136.4375 227.972656 136.757812 227.257812 C 137.199219 226.265625 137.324219 225.371094 137.347656 224.78125 C 136.589844 224.339844 136.101562 223.875 135.792969 223.523438 C 135.402344 223.066406 135.21875 222.707031 134.652344 222.3125 C 134.351562 222.109375 134.238281 222.089844 133.953125 221.855469 C 133.527344 221.484375 133.300781 221.089844 133.183594 220.886719 C 133.015625 220.589844 132.9375 220.449219 132.910156 220.21875 C 132.867188 219.875 133 219.804688 133.078125 219.339844 C 133.191406 218.65625 132.953125 218.523438 133.132812 217.890625 C 133.183594 217.695312 133.273438 217.484375 133.34375 217.300781 C 133.476562 216.96875 133.527344 216.886719 133.625 216.640625 C 133.769531 216.246094 133.742188 216.140625 133.820312 215.949219 C 133.917969 215.703125 134.140625 215.386719 134.722656 215.101562 C 134.5625 214.925781 134.324219 214.65625 134.042969 214.320312 C 132.699219 212.738281 130.980469 210.71875 131.363281 210.234375 C 131.511719 210.039062 131.9375 210.144531 132.183594 210.207031 C 133.265625 210.472656 133.609375 211.296875 134.800781 212.582031 C 135.527344 213.363281 135.8125 213.46875 136.304688 213.882812 C 136.617188 214.136719 136.660156 214.222656 137.023438 214.566406 C 137.332031 214.847656 137.597656 215.066406 137.773438 215.207031 C 137.695312 215.03125 137.613281 214.796875 137.570312 214.496094 C 137.515625 214.164062 137.535156 213.871094 137.5625 213.671875 C 138.4375 215.492188 138.871094 215.972656 139.101562 216.042969 C 139.136719 216.054688 139.375 216.132812 139.65625 216.289062 C 139.746094 216.335938 139.84375 216.394531 139.957031 216.484375 C 141.300781 217.496094 141.832031 219.410156 141.585938 220.964844 C 141.503906 221.449219 141.363281 221.828125 141.277344 222.046875 C 141.523438 223.4375 141.710938 224.984375 141.789062 226.671875 C 141.832031 227.515625 141.839844 228.324219 141.824219 229.097656 C 141.628906 229.28125 140.664062 230.328125 139.082031 230.425781 Z M 139.082031 230.425781 " fill-opacity="1" fill-rule="nonzero"/></g><path fill="#b16242" d="M 133.46875 220.675781 C 133.441406 220.554688 133.40625 220.351562 133.449219 219.945312 C 133.484375 219.65625 133.492188 219.367188 133.511719 219.078125 C 133.554688 218.503906 133.722656 217.953125 133.890625 217.40625 C 134.058594 216.863281 134.226562 216.316406 134.449219 215.789062 C 134.527344 215.597656 134.652344 215.394531 134.652344 215.171875 C 134.652344 215.15625 134.652344 215.148438 134.652344 215.128906 C 134.679688 215.121094 134.695312 215.101562 134.722656 215.09375 C 134.5625 214.917969 134.324219 214.644531 134.042969 214.3125 C 132.699219 212.730469 130.980469 210.707031 131.363281 210.226562 C 131.511719 210.03125 131.9375 210.136719 132.183594 210.199219 C 133.265625 210.460938 133.609375 211.289062 134.800781 212.570312 C 135.429688 213.25 135.175781 212.84375 137.023438 214.558594 C 137.3125 214.882812 137.554688 215.085938 137.746094 215.183594 C 137.648438 214.996094 137.492188 214.636719 137.515625 214.171875 C 137.527344 213.988281 137.5625 213.835938 137.605469 213.707031 C 137.757812 214.09375 138.011719 214.679688 138.394531 215.359375 C 139.320312 217.019531 139.726562 216.90625 140.027344 217.871094 C 140.453125 219.226562 139.859375 220.121094 140.089844 221.238281 C 140.117188 221.34375 140.179688 221.652344 140.019531 221.890625 C 139.96875 221.96875 139.894531 222.019531 139.5 222.230469 C 138.957031 222.511719 138.949219 222.476562 138.816406 222.582031 C 138.613281 222.75 138.453125 222.953125 138.269531 223.136719 C 138.09375 223.320312 137.890625 223.480469 137.625 223.53125 C 137.347656 223.585938 137.039062 223.515625 136.785156 223.417969 C 136.242188 223.234375 135.785156 222.882812 135.367188 222.496094 C 135.007812 222.152344 134.765625 222.039062 134.667969 221.960938 C 133.636719 221.117188 133.511719 220.871094 133.46875 220.675781 Z M 133.46875 220.675781 " fill-opacity="1" fill-rule="nonzero"/><path fill="#b16242" d="M 132.910156 220.203125 C 132.867188 219.859375 133 219.789062 133.078125 219.324219 C 133.191406 218.636719 132.953125 218.503906 133.132812 217.871094 C 133.183594 217.679688 133.273438 217.46875 133.34375 217.285156 C 133.476562 216.949219 133.527344 216.871094 133.625 216.625 C 133.671875 216.5 133.695312 216.40625 133.722656 216.324219 C 133.777344 216.113281 133.8125 215.972656 133.820312 215.929688 C 133.882812 215.648438 134.21875 215.136719 134.722656 215.085938 C 135.226562 215.03125 135.589844 215.457031 135.632812 215.5 C 135.632812 215.5 135.632812 215.5 135.644531 215.507812 C 136.074219 215.878906 136.6875 216.0625 137.011719 216.554688 C 137.179688 216.808594 137.277344 217.097656 137.382812 217.378906 C 137.4375 217.511719 137.492188 217.652344 137.542969 217.785156 C 137.589844 217.871094 137.625 217.96875 137.660156 218.058594 C 137.722656 218.214844 137.792969 218.410156 137.757812 218.574219 C 137.722656 218.769531 137.492188 218.707031 137.347656 218.664062 C 137.066406 218.558594 136.890625 218.347656 136.738281 218.164062 C 136.667969 218.066406 136.5625 217.925781 136.464844 217.730469 C 136.085938 217.601562 135.792969 217.460938 135.597656 217.355469 C 135.289062 217.1875 134.933594 216.976562 134.800781 217.082031 C 134.785156 217.097656 134.757812 217.125 134.765625 217.132812 C 134.792969 217.257812 134.792969 217.390625 134.8125 217.511719 C 134.8125 217.519531 134.820312 217.53125 134.820312 217.539062 C 134.820312 217.546875 134.828125 217.554688 134.839844 217.566406 C 134.890625 217.609375 134.945312 217.652344 134.996094 217.695312 C 135.007812 217.707031 135.015625 217.714844 135.023438 217.714844 C 135.253906 217.890625 135.511719 218.039062 135.757812 218.207031 C 135.882812 218.285156 136.003906 218.382812 136.101562 218.496094 C 136.183594 218.585938 136.242188 218.691406 136.289062 218.796875 C 136.339844 218.917969 136.386719 219.042969 136.449219 219.164062 C 136.492188 219.261719 136.542969 219.347656 136.597656 219.445312 C 136.800781 219.796875 136.917969 219.972656 136.96875 220.121094 C 137.046875 220.351562 137.136719 220.765625 136.976562 220.871094 C 136.855469 220.949219 136.625 220.824219 136.507812 220.753906 C 136.402344 220.695312 136.304688 220.613281 136.226562 220.527344 C 136.171875 220.464844 136.128906 220.414062 136.023438 220.238281 C 135.953125 220.121094 135.863281 219.972656 135.765625 219.78125 C 135.703125 219.753906 135.644531 219.726562 135.582031 219.710938 C 135.128906 219.523438 134.6875 219.339844 134.246094 219.15625 C 134.226562 219.128906 134.191406 219.128906 134.175781 219.136719 C 134.140625 219.148438 134.121094 219.207031 134.164062 219.21875 C 134.183594 219.339844 134.183594 219.453125 134.148438 219.578125 C 134.140625 219.605469 134.148438 219.621094 134.175781 219.640625 C 134.351562 219.71875 134.539062 219.789062 134.722656 219.859375 C 135.050781 219.992188 135.386719 220.121094 135.695312 220.296875 C 135.847656 220.519531 135.996094 220.648438 136.109375 220.730469 C 136.261719 220.835938 136.410156 220.894531 136.449219 221.035156 C 136.464844 221.105469 136.449219 221.195312 136.402344 221.246094 C 136.324219 221.351562 136.191406 221.363281 136.066406 221.371094 C 135.96875 221.378906 135.871094 221.363281 135.773438 221.335938 C 135.714844 221.316406 135.667969 221.292969 135.589844 221.246094 C 135.492188 221.195312 135.359375 221.117188 135.210938 220.992188 C 135.007812 221.011719 134.855469 220.976562 134.757812 220.941406 C 134.414062 220.808594 134.332031 220.773438 134.332031 220.773438 C 134.308594 220.753906 134.226562 220.753906 134.140625 220.738281 C 134.121094 220.738281 134.105469 220.746094 134.09375 220.753906 C 133.925781 220.992188 133.644531 221.140625 133.351562 221.1875 C 133.273438 221.0625 133.210938 220.957031 133.15625 220.871094 C 133.015625 220.578125 132.9375 220.429688 132.910156 220.203125 Z M 132.910156 220.203125 " fill-opacity="1" fill-rule="nonzero"/><path fill="#b16242" d="M 140.523438 221.855469 C 139.824219 221.265625 140.921875 219.71875 140.242188 218.292969 C 140.207031 218.214844 139.808594 217.40625 139.285156 217.003906 C 139.089844 216.851562 139.074219 216.851562 138.941406 216.710938 C 138.5 216.265625 138.5625 215.921875 138.234375 215.289062 C 137.871094 214.601562 137.589844 214.601562 137.515625 214.144531 C 137.457031 213.742188 137.632812 213.378906 137.773438 213.152344 C 137.773438 213.109375 137.773438 213.011719 137.835938 212.941406 C 137.878906 212.898438 137.933594 212.878906 137.949219 212.878906 C 138.152344 212.84375 138.507812 214.136719 139.089844 215.050781 C 139.550781 215.773438 139.761719 215.640625 140.382812 216.378906 C 140.496094 216.519531 142.328125 218.769531 141.664062 221.089844 C 141.542969 221.511719 141.375 221.828125 141.265625 222.011719 C 140.867188 222.066406 140.648438 221.960938 140.523438 221.855469 Z M 140.523438 221.855469 " fill-opacity="1" fill-rule="nonzero"/><g clip-path="url(#67a48a67de)"><path fill="#933d28" d="M 133.863281 220.992188 C 133.875 220.984375 133.882812 220.984375 133.890625 220.976562 C 133.910156 220.964844 133.925781 220.957031 133.945312 220.941406 C 133.980469 220.921875 134.015625 220.894531 134.050781 220.871094 C 134.078125 220.84375 134.105469 220.800781 134.128906 220.765625 C 134.128906 220.753906 134.140625 220.753906 134.148438 220.753906 C 134.21875 220.695312 134.34375 220.753906 134.421875 220.789062 C 134.6875 220.90625 134.96875 220.964844 135.246094 220.964844 C 135.261719 220.964844 135.269531 220.992188 135.246094 221 C 134.980469 221.011719 134.722656 220.957031 134.464844 220.871094 C 134.40625 220.84375 134.34375 220.816406 134.28125 220.789062 C 134.246094 220.78125 134.210938 220.773438 134.183594 220.789062 C 134.183594 220.800781 134.183594 220.800781 134.183594 220.808594 C 134.164062 220.84375 134.140625 220.878906 134.121094 220.914062 C 134.105469 220.949219 134.085938 220.976562 134.070312 221 C 134.058594 221.019531 134.050781 221.035156 134.03125 221.046875 C 134.007812 221.082031 133.960938 221.117188 133.925781 221.140625 C 133.910156 221.160156 133.890625 221.167969 133.863281 221.175781 C 133.828125 221.195312 133.804688 221.210938 133.757812 221.210938 C 133.707031 221.210938 133.679688 221.132812 133.714844 221.097656 C 133.75 221.054688 133.804688 221.046875 133.847656 221.019531 C 133.839844 221.011719 133.855469 220.992188 133.863281 220.992188 Z M 137.746094 218.609375 C 137.683594 218.707031 137.605469 218.742188 137.515625 218.742188 C 137.515625 218.742188 137.507812 218.742188 137.507812 218.742188 C 137.339844 218.734375 137.144531 218.609375 137.03125 218.523438 C 136.773438 218.320312 136.589844 218.046875 136.484375 217.742188 C 136.472656 217.714844 136.519531 217.6875 136.527344 217.722656 C 136.617188 217.996094 136.785156 218.242188 136.996094 218.433594 C 137.101562 218.53125 137.214844 218.609375 137.347656 218.671875 C 137.382812 218.691406 137.421875 218.699219 137.457031 218.699219 C 137.429688 218.671875 137.410156 218.636719 137.382812 218.601562 C 137.347656 218.558594 137.324219 218.515625 137.296875 218.460938 C 137.253906 218.375 137.214844 218.269531 137.226562 218.171875 C 137.234375 218.003906 137.359375 217.847656 137.527344 217.855469 C 137.5 217.792969 137.472656 217.730469 137.445312 217.671875 C 137.3125 217.371094 137.171875 217.074219 137.03125 216.773438 C 136.960938 216.617188 136.890625 216.457031 136.757812 216.34375 C 136.640625 216.238281 136.5 216.148438 136.375 216.0625 C 136.101562 215.867188 135.828125 215.667969 135.554688 215.472656 C 135.304688 215.296875 135.03125 215.085938 134.722656 215.085938 C 134.714844 215.085938 134.714844 215.066406 134.722656 215.066406 C 134.988281 215.058594 135.226562 215.183594 135.449219 215.332031 C 135.730469 215.527344 136.015625 215.726562 136.289062 215.929688 C 136.429688 216.027344 136.570312 216.125 136.703125 216.230469 C 136.828125 216.324219 136.925781 216.429688 136.996094 216.582031 C 137.15625 216.886719 137.296875 217.214844 137.445312 217.53125 C 137.597656 217.863281 137.757812 218.214844 137.773438 218.585938 C 137.78125 218.601562 137.765625 218.621094 137.746094 218.609375 Z M 137.332031 217.976562 C 137.277344 218.039062 137.253906 218.128906 137.261719 218.214844 C 137.269531 218.3125 137.304688 218.398438 137.347656 218.480469 C 137.375 218.523438 137.402344 218.558594 137.429688 218.601562 C 137.457031 218.636719 137.492188 218.664062 137.507812 218.707031 C 137.589844 218.707031 137.667969 218.679688 137.722656 218.609375 C 137.722656 218.609375 137.710938 218.601562 137.710938 218.59375 C 137.683594 218.347656 137.625 218.117188 137.527344 217.890625 C 137.457031 217.882812 137.382812 217.917969 137.332031 217.976562 Z M 134.554688 212.660156 C 134.554688 212.652344 134.554688 212.652344 134.554688 212.660156 C 134.511719 212.703125 134.464844 212.757812 134.429688 212.800781 C 134.394531 212.851562 134.351562 212.90625 134.316406 212.949219 C 134.308594 212.96875 134.332031 212.984375 134.34375 212.96875 C 134.378906 212.914062 134.414062 212.863281 134.457031 212.808594 C 134.484375 212.765625 134.519531 212.710938 134.554688 212.660156 Z M 136.605469 216.667969 C 136.605469 216.667969 136.597656 216.667969 136.605469 216.667969 C 136.597656 216.746094 136.570312 216.816406 136.527344 216.878906 C 136.519531 216.886719 136.535156 216.90625 136.542969 216.898438 C 136.578125 216.828125 136.605469 216.746094 136.605469 216.667969 Z M 138.367188 213.679688 C 138.375 213.660156 138.347656 213.652344 138.339844 213.671875 C 138.296875 213.742188 138.191406 213.765625 138.117188 213.75 C 138.039062 213.730469 137.984375 213.671875 137.949219 213.609375 C 137.90625 213.539062 137.878906 213.460938 137.863281 213.378906 C 137.851562 213.34375 137.84375 213.300781 137.84375 213.257812 C 137.84375 213.222656 137.851562 213.167969 137.835938 213.144531 C 137.828125 213.125 137.800781 213.125 137.792969 213.144531 C 137.765625 213.1875 137.78125 213.25 137.78125 213.292969 C 137.792969 213.335938 137.800781 213.390625 137.808594 213.433594 C 137.835938 213.519531 137.871094 213.609375 137.933594 213.679688 C 137.984375 213.742188 138.058594 213.785156 138.152344 213.777344 C 138.25 213.792969 138.332031 213.75 138.367188 213.679688 Z M 136.667969 216.554688 C 136.675781 216.652344 136.667969 216.746094 136.652344 216.84375 C 136.640625 216.898438 136.632812 216.941406 136.617188 216.984375 C 136.605469 217.011719 136.578125 217.082031 136.542969 217.0625 C 136.519531 217.054688 136.507812 217.089844 136.527344 217.097656 C 136.570312 217.117188 136.605469 217.082031 136.632812 217.046875 C 136.660156 217.003906 136.667969 216.941406 136.675781 216.886719 C 136.703125 216.773438 136.710938 216.660156 136.703125 216.546875 C 136.703125 216.535156 136.667969 216.535156 136.667969 216.554688 Z M 134.757812 212.660156 C 134.574219 212.835938 134.394531 213.019531 134.246094 213.230469 C 134.226562 213.25 134.261719 213.273438 134.273438 213.257812 C 134.421875 213.054688 134.589844 212.863281 134.777344 212.695312 C 134.792969 212.667969 134.777344 212.640625 134.757812 212.660156 Z M 139.472656 217.777344 C 139.242188 217.519531 139.003906 217.273438 138.789062 217.003906 C 138.570312 216.730469 138.375 216.441406 138.207031 216.132812 C 137.871094 215.527344 137.632812 214.867188 137.5 214.1875 C 137.5 214.179688 137.480469 214.179688 137.480469 214.1875 C 137.542969 214.566406 137.640625 214.945312 137.773438 215.304688 C 138.011719 215.949219 138.367188 216.5625 138.800781 217.089844 C 139.03125 217.371094 139.285156 217.625 139.523438 217.898438 C 139.585938 218.003906 139.632812 218.117188 139.65625 218.234375 C 139.65625 218.242188 139.65625 218.25 139.667969 218.257812 C 139.691406 218.398438 139.691406 218.550781 139.683594 218.691406 C 139.683594 218.714844 139.71875 218.714844 139.71875 218.699219 C 139.71875 218.679688 139.71875 218.671875 139.726562 218.65625 C 139.738281 218.65625 139.746094 218.644531 139.746094 218.636719 C 139.753906 218.515625 139.738281 218.390625 139.710938 218.269531 C 139.691406 218.179688 139.667969 218.101562 139.632812 218.023438 C 139.789062 218.234375 139.929688 218.460938 140.019531 218.714844 C 140.027344 218.742188 140.0625 218.726562 140.054688 218.699219 C 139.949219 218.355469 139.71875 218.046875 139.472656 217.777344 Z M 138.816406 214.769531 C 138.828125 214.769531 138.816406 214.761719 138.808594 214.761719 C 138.765625 214.777344 138.71875 214.796875 138.683594 214.832031 C 138.648438 214.855469 138.613281 214.890625 138.585938 214.9375 C 138.578125 214.945312 138.597656 214.953125 138.605469 214.945312 C 138.632812 214.910156 138.65625 214.875 138.695312 214.847656 C 138.738281 214.8125 138.773438 214.796875 138.816406 214.769531 Z M 138.234375 219.183594 C 138.3125 218.59375 138.515625 218.023438 138.828125 217.511719 C 138.863281 217.460938 138.78125 217.398438 138.746094 217.449219 C 138.5625 217.742188 138.410156 218.046875 138.304688 218.375 C 138.117188 218.945312 138.039062 219.570312 138.109375 220.175781 C 138.171875 220.78125 138.367188 221.363281 138.667969 221.898438 C 138.675781 221.90625 138.695312 221.898438 138.683594 221.890625 C 138.527344 221.589844 138.402344 221.273438 138.320312 220.949219 C 138.191406 220.367188 138.152344 219.761719 138.234375 219.183594 Z M 135.722656 228.894531 C 135.835938 229.042969 137.074219 230.539062 139.082031 230.425781 C 140.664062 230.328125 141.628906 229.289062 141.816406 229.078125 C 141.816406 228.683594 141.816406 228.289062 141.816406 227.882812 C 141.398438 228.261719 141.035156 228.367188 140.789062 228.394531 C 139.558594 228.527344 138.101562 227.109375 137.347656 224.78125 C 137.324219 225.371094 137.199219 226.265625 136.757812 227.257812 C 136.4375 227.972656 136.039062 228.515625 135.722656 228.894531 Z M 138.605469 215.101562 C 138.703125 215.007812 138.828125 214.9375 138.957031 214.910156 C 138.96875 214.910156 138.96875 214.890625 138.957031 214.890625 C 138.816406 214.910156 138.683594 214.972656 138.578125 215.078125 C 138.570312 215.09375 138.585938 215.113281 138.605469 215.101562 Z M 140.710938 223.03125 C 140.691406 223.066406 140.738281 223.09375 140.761719 223.066406 C 140.878906 222.96875 140.949219 222.820312 141.011719 222.699219 C 141.082031 222.566406 141.144531 222.433594 141.195312 222.292969 C 141.3125 222.011719 141.390625 221.722656 141.488281 221.433594 C 141.496094 221.414062 141.460938 221.40625 141.460938 221.421875 C 141.375 221.703125 141.265625 221.984375 141.144531 222.265625 C 141.082031 222.398438 141.019531 222.539062 140.941406 222.664062 C 140.90625 222.722656 140.867188 222.785156 140.824219 222.847656 C 140.789062 222.910156 140.746094 222.960938 140.710938 223.03125 Z M 134.210938 219.929688 C 134.183594 220 134.164062 220.070312 134.148438 220.140625 C 134.140625 220.175781 134.128906 220.210938 134.121094 220.253906 C 134.113281 220.289062 134.105469 220.324219 134.113281 220.359375 C 134.113281 220.378906 134.140625 220.378906 134.148438 220.367188 C 134.15625 220.332031 134.15625 220.296875 134.164062 220.261719 C 134.175781 220.226562 134.175781 220.191406 134.183594 220.15625 C 134.203125 220.085938 134.21875 220.015625 134.246094 219.945312 C 134.238281 219.929688 134.210938 219.910156 134.210938 219.929688 Z M 134.175781 219.640625 C 134.085938 219.628906 133.996094 219.640625 133.910156 219.648438 C 133.707031 219.664062 133.503906 219.675781 133.300781 219.691406 C 133.28125 219.691406 133.28125 219.726562 133.300781 219.71875 C 133.503906 219.710938 133.695312 219.699219 133.902344 219.683594 C 133.988281 219.675781 134.085938 219.664062 134.175781 219.683594 C 134.261719 219.699219 134.351562 219.746094 134.441406 219.78125 C 134.8125 219.9375 135.183594 220.113281 135.554688 220.253906 C 135.5625 220.261719 135.570312 220.253906 135.582031 220.246094 C 135.695312 220.386719 135.8125 220.527344 135.941406 220.648438 C 136.003906 220.710938 136.074219 220.773438 136.148438 220.824219 C 136.21875 220.886719 136.304688 220.929688 136.359375 221 C 136.421875 221.082031 136.394531 221.175781 136.332031 221.238281 C 136.316406 221.246094 136.304688 221.265625 136.289062 221.273438 C 136.269531 221.265625 136.261719 221.265625 136.242188 221.257812 C 136.207031 221.238281 136.171875 221.210938 136.148438 221.195312 C 136.085938 221.140625 136.015625 221.082031 135.980469 221 C 135.960938 220.957031 135.953125 220.914062 135.96875 220.871094 C 135.996094 220.835938 136.03125 220.824219 136.066406 220.84375 C 136.101562 220.859375 136.148438 220.886719 136.183594 220.914062 L 136.316406 220.992188 C 136.324219 221 136.332031 220.984375 136.324219 220.976562 C 136.28125 220.949219 136.234375 220.914062 136.183594 220.886719 C 136.148438 220.859375 136.101562 220.835938 136.066406 220.816406 C 136.003906 220.789062 135.953125 220.824219 135.933594 220.878906 C 135.90625 220.949219 135.941406 221.027344 135.980469 221.089844 C 136.023438 221.152344 136.074219 221.210938 136.136719 221.257812 C 136.164062 221.273438 136.191406 221.292969 136.226562 221.308594 C 136.183594 221.328125 136.136719 221.328125 136.09375 221.335938 C 135.953125 221.351562 135.800781 221.316406 135.660156 221.257812 C 135.519531 221.195312 135.414062 221.089844 135.316406 220.976562 C 135.296875 220.949219 135.261719 220.976562 135.28125 221 C 135.367188 221.160156 135.546875 221.273438 135.703125 221.34375 C 135.855469 221.398438 136.023438 221.421875 136.183594 221.386719 C 136.21875 221.378906 136.261719 221.371094 136.296875 221.34375 C 136.304688 221.34375 136.324219 221.34375 136.332031 221.34375 C 136.339844 221.34375 136.339844 221.335938 136.339844 221.328125 C 136.429688 221.265625 136.492188 221.175781 136.449219 221.054688 C 136.421875 220.964844 136.332031 220.914062 136.261719 220.859375 C 136.171875 220.800781 136.09375 220.730469 136.003906 220.660156 C 135.847656 220.519531 135.6875 220.367188 135.554688 220.203125 C 135.546875 220.191406 135.535156 220.203125 135.535156 220.210938 C 135.535156 220.210938 135.535156 220.210938 135.535156 220.21875 C 135.351562 220.132812 135.164062 220.0625 134.980469 219.980469 C 134.785156 219.902344 134.597656 219.816406 134.40625 219.734375 C 134.34375 219.683594 134.261719 219.648438 134.175781 219.640625 Z M 138.003906 224.738281 C 138.214844 224.683594 138.410156 224.535156 138.542969 224.375 C 138.683594 224.21875 138.789062 224.015625 138.835938 223.8125 C 138.84375 223.777344 138.78125 223.769531 138.773438 223.804688 C 138.730469 224 138.621094 224.183594 138.480469 224.332031 C 138.410156 224.410156 138.332031 224.472656 138.242188 224.535156 C 138.152344 224.585938 138.066406 224.632812 137.96875 224.675781 C 137.933594 224.683594 137.960938 224.746094 138.003906 224.738281 Z M 134.058594 220.121094 C 134.058594 220.042969 134.070312 219.972656 134.085938 219.894531 C 134.085938 219.875 134.058594 219.875 134.058594 219.886719 C 134.042969 219.964844 134.03125 220.035156 134.03125 220.113281 C 134.03125 220.148438 134.03125 220.191406 134.03125 220.226562 C 134.03125 220.261719 134.03125 220.308594 134.050781 220.34375 C 134.050781 220.351562 134.070312 220.351562 134.070312 220.34375 C 134.070312 220.308594 134.070312 220.273438 134.070312 220.226562 C 134.058594 220.191406 134.058594 220.15625 134.058594 220.121094 Z M 135.429688 219.640625 C 135.164062 219.523438 134.917969 219.367188 134.644531 219.253906 C 134.511719 219.199219 134.378906 219.15625 134.238281 219.128906 C 134.148438 219.113281 134.058594 219.113281 133.972656 219.085938 C 133.890625 219.058594 133.8125 219.023438 133.742188 218.980469 C 133.722656 218.972656 133.707031 218.996094 133.722656 219.015625 C 133.855469 219.113281 133.996094 219.136719 134.148438 219.164062 C 134.175781 219.296875 134.175781 219.4375 134.128906 219.570312 C 134.121094 219.585938 134.15625 219.605469 134.15625 219.585938 C 134.203125 219.453125 134.203125 219.304688 134.175781 219.171875 C 134.203125 219.171875 134.238281 219.183594 134.261719 219.191406 C 134.847656 219.289062 135.316406 219.78125 135.90625 219.804688 C 135.917969 219.804688 135.917969 219.796875 135.90625 219.796875 C 135.75 219.753906 135.589844 219.699219 135.429688 219.640625 Z M 134.582031 221.90625 C 134.554688 221.925781 134.589844 221.96875 134.617188 221.949219 C 134.875 221.714844 135.03125 221.378906 135.050781 221.027344 C 135.050781 221 135.015625 221 135.015625 221.019531 C 134.988281 221.363281 134.839844 221.6875 134.582031 221.90625 Z M 131.992188 210.128906 C 131.824219 210.050781 131.609375 210.128906 131.503906 210.277344 C 131.390625 210.445312 131.378906 210.691406 131.449219 210.875 C 131.460938 210.902344 131.503906 210.894531 131.503906 210.867188 C 131.476562 210.769531 131.460938 210.683594 131.460938 210.585938 C 131.460938 210.496094 131.484375 210.402344 131.53125 210.320312 C 131.617188 210.171875 131.8125 210.074219 131.980469 210.144531 C 131.992188 210.144531 132 210.136719 131.992188 210.128906 Z M 135.925781 218.902344 C 135.925781 218.890625 135.917969 218.902344 135.917969 218.902344 C 135.933594 218.972656 135.917969 219.042969 135.863281 219.09375 C 135.855469 219.101562 135.871094 219.121094 135.882812 219.113281 C 135.925781 219.058594 135.953125 218.980469 135.925781 218.902344 Z M 136.039062 217.519531 C 135.773438 217.40625 135.527344 217.25 135.253906 217.132812 C 135.121094 217.082031 134.988281 217.039062 134.847656 217.011719 C 134.757812 216.992188 134.667969 216.992188 134.582031 216.96875 C 134.5 216.941406 134.421875 216.90625 134.351562 216.863281 C 134.332031 216.851562 134.316406 216.878906 134.332031 216.898438 C 134.464844 216.992188 134.609375 217.019531 134.757812 217.046875 C 134.785156 217.179688 134.785156 217.320312 134.742188 217.449219 C 134.742188 217.449219 134.742188 217.460938 134.742188 217.460938 C 134.75 217.46875 134.757812 217.46875 134.757812 217.476562 C 134.757812 217.476562 134.765625 217.476562 134.765625 217.46875 C 134.8125 217.335938 134.8125 217.1875 134.785156 217.054688 C 134.8125 217.054688 134.847656 217.0625 134.875 217.074219 C 135.457031 217.167969 135.925781 217.660156 136.519531 217.6875 C 136.527344 217.6875 136.527344 217.679688 136.519531 217.679688 C 136.351562 217.644531 136.191406 217.589844 136.039062 217.519531 Z M 136.09375 218.855469 C 136.050781 219.015625 135.988281 219.171875 135.90625 219.324219 C 135.898438 219.339844 135.933594 219.359375 135.941406 219.339844 C 136.023438 219.191406 136.085938 219.03125 136.121094 218.867188 C 136.136719 218.839844 136.101562 218.832031 136.09375 218.855469 Z M 134.757812 217.476562 C 135.042969 217.671875 135.324219 217.871094 135.597656 218.074219 C 135.738281 218.171875 135.882812 218.269531 136.015625 218.375 C 136.136719 218.46875 136.234375 218.574219 136.304688 218.726562 C 136.464844 219.03125 136.605469 219.359375 136.757812 219.675781 C 136.90625 220.007812 137.066406 220.359375 137.085938 220.730469 C 137.085938 220.746094 137.066406 220.765625 137.046875 220.765625 C 136.988281 220.859375 136.90625 220.894531 136.820312 220.894531 C 136.820312 220.894531 136.808594 220.894531 136.808594 220.894531 C 136.640625 220.886719 136.449219 220.765625 136.332031 220.675781 C 136.074219 220.472656 135.890625 220.203125 135.785156 219.894531 C 135.773438 219.867188 135.820312 219.839844 135.828125 219.875 C 135.917969 220.148438 136.085938 220.394531 136.296875 220.589844 C 136.402344 220.683594 136.519531 220.765625 136.652344 220.824219 C 136.6875 220.84375 136.722656 220.851562 136.757812 220.851562 C 136.730469 220.824219 136.710938 220.789062 136.6875 220.753906 C 136.652344 220.710938 136.625 220.667969 136.597656 220.613281 C 136.554688 220.527344 136.519531 220.421875 136.527344 220.324219 C 136.535156 220.15625 136.660156 220 136.828125 220.007812 C 136.800781 219.945312 136.773438 219.886719 136.746094 219.824219 C 136.617188 219.523438 136.472656 219.226562 136.332031 218.925781 C 136.261719 218.769531 136.191406 218.609375 136.058594 218.496094 C 135.941406 218.390625 135.800781 218.304688 135.679688 218.214844 C 135.402344 218.023438 135.128906 217.820312 134.855469 217.625 C 134.609375 217.449219 134.332031 217.238281 134.023438 217.238281 C 134.015625 217.238281 134.015625 217.222656 134.023438 217.222656 C 134.28125 217.214844 134.511719 217.328125 134.722656 217.46875 C 134.742188 217.476562 134.75 217.484375 134.757812 217.476562 Z M 136.652344 220.121094 C 136.597656 220.183594 136.570312 220.273438 136.578125 220.359375 C 136.589844 220.457031 136.625 220.542969 136.667969 220.625 C 136.695312 220.667969 136.722656 220.703125 136.746094 220.746094 C 136.773438 220.78125 136.808594 220.808594 136.828125 220.851562 C 136.90625 220.851562 136.988281 220.824219 137.039062 220.753906 C 137.039062 220.753906 137.03125 220.746094 137.03125 220.738281 C 137.003906 220.492188 136.941406 220.261719 136.84375 220.035156 C 136.773438 220.027344 136.703125 220.0625 136.652344 220.121094 Z M 136.652344 220.121094 " fill-opacity="1" fill-rule="nonzero"/></g><g clip-path="url(#14792b5cb5)"><path fill="#e2e2e2" d="M 134.714844 215.085938 C 132.964844 207.710938 131.125 199.976562 130.503906 197.269531 C 130.34375 197.25 130.210938 197.144531 130.167969 196.980469 C 130.125 196.777344 130.25 196.574219 130.453125 196.523438 C 130.65625 196.46875 130.859375 196.601562 130.910156 196.804688 C 130.945312 196.960938 130.886719 197.121094 130.753906 197.199219 C 131.441406 199.921875 133.371094 207.773438 135.191406 215.191406 C 135.042969 215.121094 134.875 215.066406 134.714844 215.085938 Z M 135.953125 218.292969 C 135.882812 218.003906 135.8125 217.714844 135.738281 217.425781 C 135.5625 217.34375 135.386719 217.25 135.210938 217.160156 C 135.269531 217.40625 135.324219 217.652344 135.386719 217.898438 C 135.582031 218.011719 135.757812 218.164062 135.953125 218.292969 Z M 138.207031 229.871094 C 138.394531 229.816406 138.578125 229.765625 138.773438 229.703125 C 138.375 228.113281 137.542969 224.773438 136.570312 220.800781 C 136.296875 220.660156 136.058594 220.464844 135.933594 220.191406 C 135.96875 220.359375 136.015625 220.527344 136.050781 220.683594 C 136.058594 220.695312 136.058594 220.695312 136.066406 220.703125 C 136.171875 220.78125 136.269531 220.871094 136.332031 220.984375 C 136.394531 221.070312 136.449219 221.175781 136.386719 221.257812 C 136.367188 221.273438 136.351562 221.292969 136.332031 221.300781 C 136.296875 221.34375 136.261719 221.363281 136.21875 221.371094 C 137.101562 225.167969 137.851562 228.332031 138.207031 229.871094 Z M 138.207031 229.871094 " fill-opacity="1" fill-rule="nonzero"/></g><path fill="#ffffff" d="M 147.359375 200.152344 C 148.730469 203.546875 147.597656 206.523438 147.351562 207.140625 C 145.652344 207.367188 144.371094 207.457031 143.167969 207.570312 C 141.894531 207.695312 140.683594 207.914062 139.507812 208.117188 C 138.746094 207.421875 136.808594 205.480469 136.101562 202.289062 C 135.535156 199.757812 136.015625 197.671875 136.316406 196.679688 C 138.507812 196.207031 139.894531 195.644531 142.230469 195 C 142.816406 195.246094 145.925781 196.601562 147.359375 200.152344 Z M 147.359375 200.152344 " fill-opacity="1" fill-rule="nonzero"/><g clip-path="url(#b8f995d5c2)"><path fill="#00aa5f" d="M 137.421875 199.589844 C 138.011719 202.550781 138.976562 205.3125 139.507812 208.117188 C 139.425781 208.132812 139.347656 208.152344 139.257812 208.167969 C 137.925781 208.484375 136.003906 209.039062 133.792969 210.121094 C 133.644531 208.238281 133.324219 206.042969 132.722656 203.605469 C 132.148438 201.234375 131.414062 199.140625 130.679688 197.367188 C 132.929688 197.285156 134.695312 197.003906 135.863281 196.769531 C 136.023438 196.734375 136.171875 196.707031 136.316406 196.671875 C 136.820312 197.566406 137.199219 198.527344 137.421875 199.589844 Z M 148.6875 206.945312 C 148.207031 207.015625 147.765625 207.085938 147.351562 207.140625 C 146.988281 206.015625 146.609375 205.144531 146.359375 204.601562 C 145.386719 202.523438 144.796875 202.113281 143.796875 199.851562 C 143.691406 199.605469 143.300781 198.710938 142.910156 197.480469 C 142.621094 196.566406 142.40625 195.730469 142.25 195 C 142.902344 194.824219 143.628906 194.632812 144.460938 194.449219 C 145.867188 194.121094 147.023438 193.910156 147.757812 193.789062 C 147.703125 196.089844 148.351562 197.636719 148.976562 198.648438 C 150.191406 200.609375 151.871094 201.417969 152.824219 203.871094 C 153.171875 204.757812 153.292969 205.53125 153.339844 206.042969 C 152.3125 206.277344 150.703125 206.628906 148.6875 206.945312 Z M 148.6875 206.945312 " fill-opacity="1" fill-rule="nonzero"/></g></svg>